<mxfile host="app.diagrams.net" modified="2023-07-28T10:35:55.953Z" agent="Mozilla/5.0 (Windows NT 10.0; Win64; x64) AppleWebKit/537.36 (KHTML, like Gecko) Chrome/115.0.0.0 Safari/537.36" etag="OGNF7s0cFI4lRbqJ45dy" version="21.3.8" type="device">
  <diagram id="1c_dBoiHx9k35L1KwPgy" name="Page-1">
    <mxGraphModel dx="-405" dy="223" grid="0" gridSize="10" guides="1" tooltips="1" connect="1" arrows="1" fold="1" page="1" pageScale="1" pageWidth="827" pageHeight="1169" math="0" shadow="0">
      <root>
        <mxCell id="0" />
        <mxCell id="1" parent="0" />
        <mxCell id="y6pI81CHrDOY4QqyDqS8-1" value="&lt;i&gt;&lt;font color=&quot;#999999&quot;&gt;&amp;nbsp; Имя&lt;/font&gt;&lt;/i&gt;" style="rounded=0;whiteSpace=wrap;html=1;align=left;" parent="1" vertex="1">
          <mxGeometry x="1060" y="380" width="190" height="30" as="geometry" />
        </mxCell>
        <mxCell id="y6pI81CHrDOY4QqyDqS8-2" value="&lt;i&gt;&lt;font color=&quot;#999999&quot;&gt;&amp;nbsp;Пароль&lt;/font&gt;&lt;/i&gt;" style="rounded=0;whiteSpace=wrap;html=1;align=left;" parent="1" vertex="1">
          <mxGeometry x="1060" y="430" width="190" height="30" as="geometry" />
        </mxCell>
        <mxCell id="y6pI81CHrDOY4QqyDqS8-3" value="Сохранить" style="rounded=0;whiteSpace=wrap;html=1;align=center;fillColor=#dae8fc;strokeColor=#6c8ebf;" parent="1" vertex="1">
          <mxGeometry x="1060" y="490" width="190" height="30" as="geometry" />
        </mxCell>
        <mxCell id="y6pI81CHrDOY4QqyDqS8-4" value="&lt;b&gt;Регистрация&lt;/b&gt;" style="text;html=1;align=center;verticalAlign=middle;resizable=0;points=[];autosize=1;strokeColor=none;fillColor=none;" parent="1" vertex="1">
          <mxGeometry x="1105" y="330" width="100" height="30" as="geometry" />
        </mxCell>
      </root>
    </mxGraphModel>
  </diagram>
</mxfile>
